<?xml version="1.0" ?><svg viewBox="0 0 480 480" xmlns="http://www.w3.org/2000/svg"><g data-name="23-medicine" id="_23-medicine"><path d="M264,144l-48-36V72h8a8,8,0,0,0,8-8V16a8,8,0,0,0-8-8H64a8,8,0,0,0-8,8V64a8,8,0,0,0,8,8h8v36L24,144A40.191,40.191,0,0,0,8,176V432a40.045,40.045,0,0,0,40,40H240a40.045,40.045,0,0,0,40-40V176A40.191,40.191,0,0,0,264,144ZM104,56V24h32V56Zm48-32h32V56H152Zm64,32H200V24h16ZM72,24H88V56H72ZM33.6,156.8l51.2-38.4A8,8,0,0,0,88,112V72H200v40a8,8,0,0,0,3.2,6.4l51.2,38.4A24.113,24.113,0,0,1,264,176v8H24v-8A24.113,24.113,0,0,1,33.6,156.8ZM264,376H24V200H264Zm-24,80H48a24.027,24.027,0,0,1-24-24V392H264v40A24.028,24.028,0,0,1,240,456Z"/><path d="M96,312h24v24a8,8,0,0,0,8,8h32a8,8,0,0,0,8-8V312h24a8,8,0,0,0,8-8V272a8,8,0,0,0-8-8H168V240a8,8,0,0,0-8-8H128a8,8,0,0,0-8,8v24H96a8,8,0,0,0-8,8v32A8,8,0,0,0,96,312Zm8-32h24a8,8,0,0,0,8-8V248h16v24a8,8,0,0,0,8,8h24v16H160a8,8,0,0,0-8,8v24H136V304a8,8,0,0,0-8-8H104Z"/><path d="M410.344,378.344l33.94-33.942a40.046,40.046,0,0,0,0-56.569c-.152-.153-.312-.294-.466-.444-.332-.321-.662-.644-1-.952-.123-.111-.251-.215-.375-.324-.388-.343-.778-.684-1.177-1.01-.047-.039-.1-.074-.142-.112a40,40,0,0,0-50.33.069l-.045.035c-.452.37-.895.753-1.333,1.144-.072.064-.147.124-.219.189q-.755.683-1.478,1.405l-33.942,33.941,0,.006-33.936,33.936A40,40,0,0,0,376.4,412.284l33.931-33.931Zm-5.658-16.972-33.941-33.94,8.319-8.319,19.966-19.966a24.027,24.027,0,0,1,33.94,0,24.342,24.342,0,0,1,1.643,1.819l0,.007a24.042,24.042,0,0,1,0,30.29l0,.006a24.146,24.146,0,0,1-1.643,1.819Zm-39.6,39.6a24,24,0,1,1-33.941-33.94l28.284-28.284,33.941,33.94Z"/><path d="M432,392a40,40,0,1,0,40,40A40.045,40.045,0,0,0,432,392Zm0,16a24.039,24.039,0,0,1,22.624,16H409.376A24.039,24.039,0,0,1,432,408Zm0,48a24.039,24.039,0,0,1-22.624-16h45.248A24.039,24.039,0,0,1,432,456Z"/><path d="M376,256a40,40,0,1,0-40,40A40.045,40.045,0,0,0,376,256Zm-40-24a24.039,24.039,0,0,1,22.624,16H313.376A24.039,24.039,0,0,1,336,232Zm-22.624,32h45.248a24,24,0,0,1-45.248,0Z"/></g></svg>