<?xml version="1.0" encoding="iso-8859-1"?>
<!-- Generator: Adobe Illustrator 18.0.0, SVG Export Plug-In . SVG Version: 6.00 Build 0)  -->
<!DOCTYPE svg PUBLIC "-//W3C//DTD SVG 1.1//EN" "http://www.w3.org/Graphics/SVG/1.1/DTD/svg11.dtd">
<svg version="1.1" id="Capa_1" xmlns="http://www.w3.org/2000/svg" xmlns:xlink="http://www.w3.org/1999/xlink" x="0px" y="0px"
	 viewBox="0 0 484.027 484.027" style="enable-background:new 0 0 484.027 484.027;" xml:space="preserve">
<g>
	<path style="fill:#020202;" d="M350.565,94.763c26.173,0,47.381-21.21,47.381-47.382C397.946,21.209,376.738,0,350.565,0
		c-26.174,0-47.382,21.209-47.382,47.382C303.183,73.553,324.39,94.763,350.565,94.763z"/>
	<path style="fill:#020202;" d="M133.519,94.763c26.173,0,47.381-21.21,47.381-47.382C180.9,21.209,159.692,0,133.519,0
		c-26.174,0-47.382,21.209-47.382,47.382C86.137,73.553,107.345,94.763,133.519,94.763z"/>
	<path style="fill:#020202;" d="M471.404,279.411l-67.567-164.24c-2.897-7.041-9.699-11.288-16.869-11.283
		c-0.056-0.002-0.111-0.008-0.167-0.008h-72.479c-0.081,0-0.16,0.008-0.24,0.012c-7.204-0.042-14.051,4.208-16.96,11.279
		l-54.931,133.526l-54.908-133.468c-1.866-4.535-7.02-11.349-17.528-11.349c0,0-54.359,0-72.479,0c-0.066,0-0.13,0.008-0.196,0.009
		c-7.177,0.092-13.99,4.234-16.89,11.282l-67.567,164.24c-3.828,9.305,0.612,19.951,9.917,23.779
		c2.268,0.933,4.615,1.375,6.925,1.375c7.164,0,13.96-4.255,16.855-11.292l29.758-72.334v12.579L42.09,339.698
		c-5.716,17.856,7.606,36.109,26.355,36.109h7.631v84.247c0,13.53,11.21,24.443,24.85,23.958
		c12.991-0.463,23.098-11.534,23.098-24.533v-83.672h18.982v84.247c0,13.53,11.209,24.443,24.848,23.958
		c12.991-0.462,23.1-11.534,23.1-24.534v-83.671h7.631c18.749,0,32.071-18.253,26.355-36.109l-33.986-106.179v-13.597l30.2,73.409
		c2.895,7.037,9.69,11.292,16.855,11.292c1.432,0,7.034-0.058,8.388-0.058c7.164,0,13.96-4.255,16.855-11.292l29.872-72.611v239.391
		c0,13.53,11.211,24.443,24.85,23.958c12.991-0.463,23.098-11.534,23.098-24.533V330.1c0-5.055,3.815-9.469,8.86-9.796
		c5.527-0.357,10.121,4.02,10.121,9.47v130.279c0,13.53,11.209,24.443,24.848,23.958c12.992-0.462,23.1-11.534,23.1-24.534V221.061
		l29.708,72.213c2.895,7.037,9.69,11.292,16.855,11.292c2.309,0,4.657-0.442,6.925-1.375
		C470.791,299.362,475.231,288.716,471.404,279.411z M133.787,311.825c-26.1,0-47.258-29.625-47.258-66.169
		c0-36.545,21.158-66.17,47.258-66.17c26.1,0,47.258,29.625,47.258,66.17C181.045,282.2,159.887,311.825,133.787,311.825z"/>
	<path style="fill:#020202;" d="M133.782,229.694c-2.756-6.901-9.478-11.792-17.366-11.792c-10.344,0-18.726,12.471-18.726,22.814
		c0,18.345,27.923,39.158,36.092,39.158c8.173,0,36.096-20.431,36.096-39.158c0-10.344-8.382-22.814-18.731-22.814
		C143.263,217.902,136.542,222.793,133.782,229.694z"/>
</g>
<g>
</g>
<g>
</g>
<g>
</g>
<g>
</g>
<g>
</g>
<g>
</g>
<g>
</g>
<g>
</g>
<g>
</g>
<g>
</g>
<g>
</g>
<g>
</g>
<g>
</g>
<g>
</g>
<g>
</g>
</svg>
